# xmcd
#
# Track frame offsets:
#	150
#	17232
#	38862
#	56800
#	74066
#	93014
#	109281
#	126415
#	143145
#	159292
#	182650
#	202495
#
# Disc length: 2944 seconds
# Revision: 0
# Processed by: cddbd v1.5.2PL0 Copyright (c) Steve Scherf et al.
# Submitted via: dBpowerAMP V12.0
#
DISCID=b60b7e0c
DTITLE=Various Artist - Go
DYEAR=2007
DGENRE=Hip-Hop
TTITLE0=Mario - Go
TTITLE1=Mario - Crying Out For Me
TTITLE2=Mario - Skippin'
TTITLE3=Mario - Music For Love
TTITLE4=Mario featuring Rich Boy - Kryptonite
TTITLE5=Mario - How Do I Breathe
TTITLE6=Mario - No Definition
TTITLE7=Mario - Why
TTITLE8=Mario - Lay In My Bed
TTITLE9=Mario - Right And A Wrong Way
TTITLE10=Mario featuring Juelz Santana - Let Me Watch
TTITLE11=Mario - Do Right
EXTD=
EXTT0=
EXTT1=
EXTT2=
EXTT3=
EXTT4=
EXTT5=
EXTT6=
EXTT7=
EXTT8=
EXTT9=
EXTT10=
EXTT11=
PLAYORDER=
